<?xml version="1.0" encoding="UTF-8"?>
<svg width="24px" height="24px" viewBox="0 0 24 24" version="1.1" xmlns="http://www.w3.org/2000/svg" xmlns:xlink="http://www.w3.org/1999/xlink">
    <title>Facebook</title>
    <g stroke="none" stroke-width="1" fill="none" fill-rule="evenodd">
        <g transform="translate(-1201.000000, -3947.000000)">
            <g transform="translate(0.000000, 3576.000000)">
                <g transform="translate(1201.000000, 371.000000)">
                    <polygon id="placer" points="0 0 24 0 24 24 0 24"></polygon>
                    <g id="fill" transform="translate(8.000000, 3.000000)" fill="#E1B62E">
                        <path d="M7.668,9.08715789 L5.262,9.08715789 L5.262,17.2155789 L1.697,17.2155789 L1.697,9.08715789 L-0.003,9.08715789 L-0.003,6.21663158 L1.697,6.21663158 L1.697,4.35789474 C1.61887445,3.43265419 1.97299003,2.52150024 2.66578681,1.86516645 C3.35858359,1.20883266 4.3203572,0.873354738 5.297,0.947368421 L7.936,0.953052632 L7.936,3.74115789 L6.019,3.74115789 C5.80247715,3.73038959 5.5922065,3.81186734 5.44571273,3.96330093 C5.29921897,4.11473451 5.23183671,4.32027223 5.262,4.52368421 L5.262,6.21189474 L7.981,6.21189474 L7.668,9.08715789 Z" id="facebook"></path>
                    </g>
                </g>
            </g>
        </g>
    </g>
</svg>