<svg xmlns="http://www.w3.org/2000/svg" width="29" height="30" viewBox="0 0 29 30"><g><g><path fill="red" d="M.007 13.492l.117-.603c.036-.19.219-.31.407-.319a1.435 1.435 0 0 0 1.33-1.18 1.487 1.487 0 0 0-.787-1.618c-.172-.084-.294-.267-.258-.46l.117-.603c.036-.189.219-.31.407-.318a1.436 1.436 0 0 0 1.33-1.18 1.487 1.487 0 0 0-.787-1.619c-.172-.083-.293-.267-.257-.46l.116-.602c.036-.19.219-.31.407-.319a1.436 1.436 0 0 0 1.33-1.18 1.487 1.487 0 0 0-.786-1.619c-.172-.083-.294-.267-.258-.46l.13-.668A.347.347 0 0 1 2.9 0L24.59 4.5a.353.353 0 0 1 .27.416l-.131.67c-.036.189-.219.31-.407.318-.638.028-1.2.502-1.33 1.18-.13.677.21 1.337.787 1.619.171.083.293.267.257.459l-.116.603c-.036.19-.22.31-.408.318-.637.03-1.2.503-1.33 1.18-.13.678.21 1.338.787 1.62.172.083.294.266.258.459l-.03.163-.086.442c-.036.19-.22.31-.408.319-.637.029-1.2.503-1.33 1.18-.13.677.21 1.338.787 1.619.172.083.294.267.258.46l-.117.602c-.036.19-.219.31-.407.319L.262 13.948c-.172-.083-.294-.264-.255-.456zm25.81 2.16l2.984 1.426a.359.359 0 0 1 .167.47l-.275.62c-.08.179-.282.25-.468.213a1.408 1.408 0 0 0-1.558.827 1.5 1.5 0 0 0 .402 1.763c.147.123.228.33.147.508l-.25.56c-.08.177-.282.249-.467.212a1.408 1.408 0 0 0-1.558.827 1.5 1.5 0 0 0 .402 1.762c.147.124.227.33.147.508l-.25.56c-.08.178-.282.25-.468.213a1.408 1.408 0 0 0-1.557.826 1.5 1.5 0 0 0 .402 1.763c.146.123.227.33.146.508l-.249.56c-.08.178-.283.25-.468.212L3.01 20.42c-.147-.124-.227-.33-.147-.509l.25-.56c.08-.177.282-.25.468-.212.626.126 1.277-.2 1.557-.827.133-.298.161-.617.1-.916l.017.003.34.072.74.155 1.076.224 1.344.279 1.551.321 1.696.353 1.777.37 1.793.374 1.748.364 1.638.342 1.466.304 1.23.256.932.192c.21.043.424.083.631.135.743.19 1.591-.307 1.743-1.102l.117-.603a1.44 1.44 0 0 0-.795-1.565.466.466 0 0 1-.247-.51.45.45 0 0 1 .418-.374 1.394 1.394 0 0 0 1.317-1.125z"/></g></g></svg>