<svg xmlns="http://www.w3.org/2000/svg" width="38" height="38" viewBox="0 0 38 38"><defs><clipPath id="9afsa"><path fill="#fff" d="M.75 34.25V3.75h38.5v30.5zm33.5-27.125A2.375 2.375 0 0 1 36.625 9.5v19a2.375 2.375 0 0 1-2.375 2.375H5.75A2.375 2.375 0 0 1 3.375 28.5v-19A2.375 2.375 0 0 1 5.75 7.125zM5.75 4.75A4.75 4.75 0 0 0 1 9.5v19a4.75 4.75 0 0 0 4.75 4.75h28.5A4.75 4.75 0 0 0 39 28.5v-19a4.75 4.75 0 0 0-4.75-4.75z"/></clipPath><clipPath id="9afsb"><path fill="#fff" d="M.518 23.458V8.542h38.964v14.916zm.65-13.378a1.188 1.188 0 0 0 .41 1.629L20 22.759l18.423-11.052a1.187 1.187 0 1 0-1.22-2.038L20 19.99 2.798 9.669a1.188 1.188 0 0 0-1.63.408z"/></clipPath><clipPath id="9afsc"><path fill="#fff" d="M.316 30.684V17.316h39.368v13.368zM1.59 27.47l1.197 2.052 15.276-8.911-1.197-2.052zm21.375-6.26l1.197-2.052-1.026-.599-1.197 2.052zm15.447 6.26l-14.25-8.313-1.197 2.052 14.25 8.313z"/></clipPath></defs><g><g><g/><g><path fill="#4a4a4a" d="M34.25 7.125A2.375 2.375 0 0 1 36.625 9.5v19a2.375 2.375 0 0 1-2.375 2.375H5.75A2.375 2.375 0 0 1 3.375 28.5v-19A2.375 2.375 0 0 1 5.75 7.125zM5.75 4.75A4.75 4.75 0 0 0 1 9.5v19a4.75 4.75 0 0 0 4.75 4.75h28.5A4.75 4.75 0 0 0 39 28.5v-19a4.75 4.75 0 0 0-4.75-4.75z"/><path fill="none" stroke="#4a4a4a" stroke-miterlimit="20" d="M34.25 7.125A2.375 2.375 0 0 1 36.625 9.5v19a2.375 2.375 0 0 1-2.375 2.375H5.75A2.375 2.375 0 0 1 3.375 28.5v-19A2.375 2.375 0 0 1 5.75 7.125zM5.75 4.75A4.75 4.75 0 0 0 1 9.5v19a4.75 4.75 0 0 0 4.75 4.75h28.5A4.75 4.75 0 0 0 39 28.5v-19a4.75 4.75 0 0 0-4.75-4.75z" clip-path="url(&quot;#9afsa&quot;)"/></g><g><path fill="#4a4a4a" d="M1.169 10.077a1.188 1.188 0 0 1 1.63-.408L20 19.99 37.202 9.669a1.188 1.188 0 0 1 1.221 2.038L20 22.76 1.577 11.709a1.188 1.188 0 0 1-.408-1.63z"/><path fill="none" stroke="#4a4a4a" stroke-miterlimit="20" d="M1.169 10.077a1.188 1.188 0 0 1 1.63-.408L20 19.99v0L37.202 9.669a1.188 1.188 0 0 1 1.221 2.038L20 22.76v0L1.577 11.709a1.188 1.188 0 0 1-.408-1.63z" clip-path="url(&quot;#9afsb&quot;)"/></g><g><path fill="#4a4a4a" d="M16.866 18.56l1.197 2.052-15.276 8.911-1.197-2.052zm5.073 2.052l1.197-2.052 1.026.599-1.197 2.052zm16.473 6.859l-14.25-8.313-1.197 2.052 14.25 8.313z"/><path fill="none" stroke="#4a4a4a" stroke-miterlimit="20" d="M16.866 18.56l1.197 2.052-15.276 8.911-1.197-2.052zm5.073 2.052l1.197-2.052 1.026.599-1.197 2.052zm16.473 6.859l-14.25-8.313-1.197 2.052 14.25 8.313z" clip-path="url(&quot;#9afsc&quot;)"/></g></g></g></svg>