<?xml version="1.0" encoding="utf-8"?>
<!-- Generator: Adobe Illustrator 26.1.0, SVG Export Plug-In . SVG Version: 6.00 Build 0)  -->
<svg version="1.1" id="Layer_1" xmlns="http://www.w3.org/2000/svg" xmlns:xlink="http://www.w3.org/1999/xlink" x="0px" y="0px"
	 viewBox="0 0 576 487.68" style="enable-background:new 0 0 576 487.68;" xml:space="preserve">
<style type="text/css">
	.st0{fill:#3F4040;}
</style>
<g>
	<path class="st0" d="M214.12,292.66c-23.72,0-45.92,0-69.1,0c0-39.31,0-77.85,0-117.71c22.67,0,45.13,0,68.8,0
		c0.41-6.72,0.72-12.24,1.09-17.75c1.55-23.21,0.8-46.87,5.16-69.54C229,41.24,275.29,2.75,322.89,0.68
		c29.75-1.29,59.6-0.27,89.4-0.61c7.13-0.08,8.95,2.94,8.91,9.48c-0.21,31.64-0.29,63.29,0.03,94.93
		c0.08,7.79-2.47,10.73-10.39,10.55c-17.35-0.39-34.71-0.24-52.06-0.04c-15.55,0.18-21.17,5.81-21.38,21.03
		c-0.12,9.04,0.38,18.1-0.14,27.12c-0.48,8.33,2.62,11.36,11.05,11.15c18.48-0.47,36.97-0.18,55.46-0.12
		c4.05,0.01,8.11,0.37,13.59,0.63c-2.83,18.73-5.51,36.42-8.18,54.11c-2.69,17.84-5.78,35.64-7.82,53.56
		c-0.86,7.57-4.32,9.39-11.01,9.25c-12.45-0.25-24.9-0.1-37.35-0.07c-15.62,0.03-15.63,0.05-15.64,16.18
		c-0.01,55.37-0.31,110.75,0.24,166.12c0.11,10.98-3.1,13.96-13.91,13.73c-32.06-0.69-64.14-0.63-96.2-0.03
		c-10.14,0.19-12.85-3.2-12.79-12.93c0.37-55.37,0.2-110.74,0.15-166.11C214.86,303.79,214.42,298.97,214.12,292.66z M301.82,256.45
		c20.75,0,39.58-0.27,58.39,0.13c7.63,0.16,10.95-2.5,11.44-10.19c0.6-9.37,1.66-18.78,3.42-28c1.55-8.15-1.04-10.87-9.21-10.7
		c-18.1,0.38-36.21-0.13-54.31,0.23c-7.33,0.14-9.89-2.35-9.76-9.78c0.39-22.59-0.16-45.2,0.25-67.79
		c0.43-23.63,17.48-44.45,40.73-48.76c10.62-1.97,21.75-1.74,32.63-1.58c7.68,0.12,11.14-2.15,10.62-10.24
		c-0.5-7.88-0.47-15.83,0.02-23.71c0.52-8.17-2.36-11.67-10.91-11.36c-12.81,0.48-25.65,0.04-38.47,0.11
		c-50.25,0.28-86.74,36.82-86.84,86.97c-0.05,24.1,0,48.21-0.01,72.31c-0.01,15.02-0.03,15.04-14.52,15.06
		c-15.09,0.03-30.18,0.28-45.26-0.1c-8.34-0.21-11.57,3.04-11.07,11.34c0.5,8.26,0.65,16.61-0.04,24.84
		c-0.8,9.5,2.84,12.34,12.19,12.03c19.1-0.65,38.24-0.19,58.71-0.19c0,6.54,0,11.71,0,16.88c0.01,55.74-0.1,111.48,0.27,167.21
		c0.03,3.75,3.49,10.58,5.69,10.73c14.91,0.96,29.92,0.5,46.05,0.5C301.82,386.67,301.82,322.43,301.82,256.45z"/>
</g>
</svg>
