<?xml version="1.0" encoding="utf-8"?>
<svg version="1.1" id="Layer_1" xmlns="http://www.w3.org/2000/svg" xmlns:xlink="http://www.w3.org/1999/xlink" x="0px" y="0px" viewBox="0 0 576 487.68" style="enable-background:new 0 0 576 487.68;" xml:space="preserve">
	<title>YouTube</title>
	<g>
		<path class="st0" d="M288.03,435.83c-42.71,0-85.43,0.35-128.14-0.09c-54.1-0.56-94.43-24.56-119.42-72.76
			c-8.69-16.76-12.53-35.09-12.6-54c-0.16-43-0.46-86,0.01-128.99c0.6-54.45,32.68-101.85,82.56-120.01
			c14.57-5.3,30.93-7.74,46.51-7.87c87.89-0.71,175.79-0.08,263.69-0.39c70.51-0.25,128.06,58.1,127.72,128.49
			c-0.21,41.94,0.05,83.88-0.09,125.82c-0.18,57.72-34.25,105.69-89.36,123.55c-13.82,4.48-29.16,4.3-43.8,6.24
			c-0.69,0.09-1.41,0.02-2.12,0.02C371.34,435.83,329.69,435.83,288.03,435.83z M286.11,392.41c44.14,0,88.28,0.36,132.41-0.09
			c50.75-0.52,86.75-37.26,86.82-87.8c0.05-40.89-0.01-81.79,0.07-122.68c0.1-48.76-36.74-87.03-85.47-87.26
			c-87.57-0.42-175.14-0.38-262.71,0c-49.7,0.21-86.2,37.62-86.32,87.38c-0.09,39.48,1.4,79.03-0.39,118.44
			c-2.14,47.09,33.64,94.3,92.72,92.31C204.15,391.32,245.15,392.43,286.11,392.41z"/>
		<path class="st0" d="M238.9,320.88c0-52.84,0-102.84,0-154.67c42.84,25.9,84.26,50.95,127.94,77.36
			C323.47,269.77,282.29,294.66,238.9,320.88z"/>
	</g>
</svg>
