<?xml version="1.0" encoding="utf-8"?>
<svg version="1.1" id="Layer_1" xmlns="http://www.w3.org/2000/svg" xmlns:xlink="http://www.w3.org/1999/xlink" x="0px" y="0px" viewBox="0 0 576 487.68" style="enable-background:new 0 0 576 487.68;" xml:space="preserve">
	<title>Twitter</title>
	<g>
		<path class="st0" d="M68.25,159.79c3.35,0.43,5.82,0.75,9.81,1.26c-16.96-44.9-6.41-85.21,20.17-126.26c2,3.48,3.38,5.83,4.72,8.21
			c20.64,36.6,54.04,59.21,89.9,77.55c24.55,12.56,51.56,20.32,77.56,30c7.88,2.93,10.7-0.41,11.52-8.74
			c4.54-46.16,27.68-80.26,70.42-98.45c37.7-16.04,76.56-14.56,111.32,7.71c14.07,9.02,24.62,8.19,37.52,2.4
			c7.4-3.32,14.42-7.96,22.15-9.94c6.11-1.57,15.41-2.49,18.97,0.86c4.18,3.94,4.42,12.76,4.92,19.58c0.29,3.92-2.3,8.04-3.85,12.88
			c2.66,0.55,4.75,0.93,6.82,1.41c14.57,3.43,21.53,18.29,12.86,30.49c-9.14,12.86-19.38,25.2-30.7,36.16
			c-9.04,8.74-13.48,18.01-14,30.37c-1.83,43.2-13.34,83.97-33.58,122.06c-38.23,71.99-95.6,122.73-174.37,144.75
			c-93.13,26.03-181.92,12.8-264.01-39.71c-12.49-7.99-25.09-15.79-37.26-24.98c53.63,0.86,107.61,10.04,158.07-13.89
			c-14.27-11.47-30.4-20.1-40.2-33.38c-12.35-16.74-19.59-37.26-28.93-56.19c-1.53-3.1-2.07-6.74-3.84-9.66
			C69.01,222.63,65.83,210.23,68.25,159.79z M168.29,205.92c-0.28,1.36-0.56,2.72-0.84,4.08c-20.65,1.47-41.3,2.95-62.98,4.5
			c3.06,20.11,15.56,34.52,33.91,42.45c21.57,9.31,44.34,15.87,66.55,23.72c3.24,1.14,6.29,2.81,11.59,5.21
			c-24.34,6.6-45.81,12.42-69.17,18.76c3.5,4.32,5.97,8.04,9.09,11.09c12.1,11.79,27.34,17.29,43.51,20.25
			c16.25,2.97,32.65,5.15,51.57,8.08c-35.62,29.28-70.53,54.29-116.89,63.68c4.73,2.46,6.63,3.96,8.76,4.48
			c46.19,11.29,92.5,14.32,139.43,3.9c68.88-15.29,121.75-53.06,160.44-111.41c27.65-41.69,41.28-87.91,43.99-137.52
			c0.86-15.78,5.26-29.46,17.9-39.98c9-7.49,17.41-15.7,26.08-23.59c-0.41-0.85-0.82-1.69-1.23-2.54
			c-11.84,2.57-23.67,5.15-35.51,7.72c-0.31-0.84-0.63-1.68-0.94-2.53c7.64-8.69,15.27-17.39,23.39-26.62
			c-2.35-0.62-3.25-1.18-3.75-0.94c-7.27,3.57-14.58,7.09-21.7,10.94c-12.81,6.91-20.12,5.59-31.99-2.47
			c-10.39-7.06-21.51-14.11-33.36-17.77c-39.48-12.22-78.52,3.05-100.64,38.01c-11.53,18.23-13.79,38.54-10.97,59.32
			c1.38,10.11-2.26,15.01-11.65,15.18c-14.28,0.26-28.96,1.51-42.8-1.14c-39.27-7.52-74.7-24.97-107.93-46.71
			c-16.05-10.5-31.11-22.5-46.66-33.85c-10.23,22.32,1.89,62.68,28.3,81.07C145.38,189.37,156.8,197.7,168.29,205.92z"/>
	</g>
</svg>
