<svg xmlns="http://www.w3.org/2000/svg" width="40" height="29" viewBox="0 0 40 29"><g><g><g/><g><path fill="#4a4a4a" d="M32.338 5.074c-5.781-.45-18.895-.45-24.676 0H7.65l-.013.002c-1.29.092-1.881.317-2.13.456-.15.084-.28.179-.448.535-.219.464-.457 1.295-.615 2.786-.155 1.47-.208 3.32-.208 5.705 0 2.385.053 4.236.208 5.706.158 1.49.396 2.322.615 2.786.169.356.298.451.447.535.247.137.829.359 2.091.453 5.876.302 19.011.301 24.85-.002h.017c1.269-.062 1.831-.277 2.05-.397.121-.066.247-.148.42-.518.223-.476.463-1.326.621-2.832.156-1.484.209-3.347.209-5.73 0-2.385-.053-4.236-.208-5.706-.158-1.49-.396-2.322-.615-2.786-.169-.356-.298-.451-.447-.535-.25-.139-.84-.364-2.131-.456l-.013-.001zM7.333.85c6-.467 19.334-.467 25.334 0C39.167 1.318 40 4.9 40 14.558c0 9.658-.833 13.397-7.333 13.708-6 .312-19.334.312-25.334 0C.833 27.8 0 24.216 0 14.558 0 4.901.833 1.318 7.333.85zM27.17 14.5l-12.076 5.895V8.605z"/></g></g></g></svg>