<?xml version="1.0" encoding="utf-8"?>
<!-- Generator: Adobe Illustrator 26.1.0, SVG Export Plug-In . SVG Version: 6.00 Build 0)  -->
<svg version="1.1" id="Layer_1" xmlns="http://www.w3.org/2000/svg" xmlns:xlink="http://www.w3.org/1999/xlink" x="0px" y="0px"
	 viewBox="0 0 576 487.68" style="enable-background:new 0 0 576 487.68;" xml:space="preserve">
<style type="text/css">
	.st0{fill:#3F4040;}
</style>
<g>
	<path class="st0" d="M287.78,483.04c-36.63,0-73.26-0.34-109.89,0.08c-51,0.59-89.81-20.4-115.94-64.15
		C51.45,401.39,45.69,382,45.6,361.59c-0.35-79.86-0.75-159.73,0.04-239.58C46.29,56.86,101.05,1.47,166.32,0.66
		C248.53-0.35,330.78-0.12,413,0.83c55.8,0.65,106.05,47.2,115.47,104.73c1.26,7.7,2.16,15.56,2.17,23.35
		c0.17,75.01,0.27,150.02,0.08,225.03c-0.13,54.04-30.99,101.39-80.46,120.56c-14.57,5.65-31.21,7.7-46.99,8.17
		C364.8,483.8,326.28,483.04,287.78,483.04z M86.97,241.1c0,18.66,0,37.32,0,55.99c0,19.04,0.82,38.11-0.16,57.1
		c-2.39,46.66,36.37,88.77,87.85,88.31c75.51-0.68,151.03-0.04,226.55-0.33c9.61-0.04,19.75-0.68,28.71-3.76
		c37.57-12.91,59.24-44.31,59.27-84.28c0.06-75.02-0.62-150.05,0.25-225.07c0.54-46.83-35.73-88.41-88.29-88.52
		c-75.14-0.15-150.28-0.18-225.42-0.17c-51.67,0-90.37,39.51-88.99,88.76C87.8,166.42,86.96,203.77,86.97,241.1z"/>
	<path class="st0" d="M411.81,242.6c-0.66,69.41-55.64,123.2-125.06,122.94c-66.86-0.24-124.84-56.13-123.1-127.51
		c1.59-65.06,58.03-123.08,129.37-120.42C356.38,119.97,413.74,173.97,411.81,242.6z M285.91,158.85
		c-47.97,1.95-83.32,39.71-81.28,86.83c1.92,44.56,41.92,81.53,85.88,79.38c46.32-2.27,83.13-41.65,81.05-86.71
		C369.47,193.11,330.59,157.03,285.91,158.85z"/>
	<path class="st0" d="M387.98,111.36c0.15-15.3,13.48-28.7,28.35-28.51c14.96,0.2,28.05,13.92,27.92,29.28
		c-0.13,15.52-13.05,28.13-28.61,27.92C400.03,139.84,387.82,127.18,387.98,111.36z"/>
</g>
</svg>
