<svg xmlns="http://www.w3.org/2000/svg" width="30" height="26" viewBox="0 0 30 26"><g><g><path fill="red" d="M27.963 1.103l1.11 10.322c.15 1.627-.843 3.136-2.39 3.597L14.3 18.712c-1.607.479-3.351-.312-4.086-1.83L4.416 4.776c-.077-.141-.234-.226-.383-.181l-2.41.718A1.273 1.273 0 0 1 .057 4.47c-.206-.66.161-1.36.816-1.555l2.411-.718c1.34-.4 2.78.253 3.37 1.52l.926 1.92L26.332.048c.09-.026.188-.023.247-.04a1.26 1.26 0 0 1 1.384 1.095zM15.123 19.68c1.637-.488 3.418.423 3.993 2.055.623 1.682-.266 3.52-1.935 4.116l-.06.018c-1.637.488-3.388-.432-3.963-2.064a3.22 3.22 0 0 1 1.965-4.125zm10.656-3.176c1.696-.506 3.506.496 4.07 2.196.543 1.74-.425 3.536-2.122 4.041-1.726.515-3.536-.487-4.07-2.196-.543-1.739.425-3.536 2.122-4.041z"/></g></g></svg>