<svg xmlns="http://www.w3.org/2000/svg" width="38" height="26" viewBox="0 0 19 13"><g><g><path d="M2.019-.004c5.396.038 10.797-.039 16.195.038.325 1.404-.583 2.71-1.658 3.576-1.853 1.407-3.747 2.769-5.559 4.23-.536.38-1.114.844-1.822.825-.696-.128-1.257-.58-1.797-.988C5.537 6.182 3.6 4.797 1.74 3.327.739 2.547.264 1.317.278.103c.576-.09 1.159-.117 1.741-.107zM6.53 8.853c.882.742 2.013 1.402 3.237 1.227 1.39-.318 2.41-1.347 3.49-2.171C14.9 6.59 16.652 5.404 18.271 4.06c-.007 2.658-.01 5.317.002 7.976-.036.293.06.644-.146.898a5.442 5.442 0 0 1-.76.06l-15.963-.001c-.366-.012-.73-.049-1.09-.1L.309 4.06C2.344 5.702 4.5 7.201 6.53 8.853z"/></g></g></svg>