<svg xmlns="http://www.w3.org/2000/svg" width="30" height="30" viewBox="0 0 30 30"><g><g><path d="M20.936 7.809a1.704 1.704 0 1 0 3.408.002 1.704 1.704 0 0 0-3.408-.002zm-13.03 7.645c0 3.951 3.211 7.165 7.158 7.165 3.947 0 7.158-3.214 7.158-7.165 0-3.95-3.211-7.164-7.158-7.164-3.947 0-7.158 3.214-7.158 7.164zM9.143 30c-4.815 0-8.73-3.921-8.73-8.738V9.647C.413 4.83 4.328.91 9.143.91h11.604c4.814 0 8.73 3.92 8.73 8.738v11.615c0 4.817-3.916 8.738-8.73 8.738zm1.336-14.546a4.591 4.591 0 0 1 4.585-4.588 4.591 4.591 0 0 1 4.585 4.588 4.592 4.592 0 0 1-4.585 4.589 4.592 4.592 0 0 1-4.585-4.589z"/></g></g></svg>